# xmcd
#
# Track frame offsets:
#	150
#	14029
#	27530
#	41805
#	58285
#	71822
#	84630
#	99139
#	112082
#	127104
#	140452
#	154241
#	167157
#	183025
#	196751
#
# Disc length: 2811 seconds
#
# Revision: 1
# Processed by: cddbd v1.5.2PL0 Copyright (c) Steve Scherf et al.
# Submitted via: audiograbber 1.83.01
#
DISCID=da0af90f
DTITLE=Carina -  I hob a bayrisches Herz (Rosewood, 2010)
DYEAR=2010
DGENRE=Volksmusik
TTITLE0=Servus miteinander (I sag hallo)
TTITLE1=I hob a bayrisches Herz
TTITLE2=Fesch muass er sein
TTITLE3=Erste Liebe (Va Pensiero)
TTITLE4=Das Gute-Laune-Sommerlied
TTITLE5=Boarischer in Istanbul
TTITLE6=La Montanara
TTITLE7=Immer schön am Boden bleiben
TTITLE8=Des Königs letzter Traum
TTITLE9=Jungs, die sind wie Marmelade
TTITLE10=I steh auf Lederhosen
TTITLE11=Mach' es wie Karl Valentin
TTITLE12=Solange du an Liebe glaubst
TTITLE13=Servus miteinander (I sag Pfüagott)
TTITLE14=Hat der Schneemann eine Frau
EXTD=Carina - Das Debutalbum der Alpen Grand Prix Siegerin
EXTT0=
EXTT1=
EXTT2=
EXTT3=
EXTT4=
EXTT5=
EXTT6=
EXTT7=
EXTT8=
EXTT9=
EXTT10=
EXTT11=
EXTT12=
EXTT13=
EXTT14=
PLAYORDER=
